<?xml version="1.0" encoding="UTF-8"?><svg id="uuid-ea98abda-c7b1-4ee3-96ef-3f26018b8c96" xmlns="http://www.w3.org/2000/svg" width="6.3in" height="2.66in" viewBox="0 0 453.61 191.26"><g id="uuid-33d70809-e339-41bf-ae94-1688e0535b51"><g><path d="M52.33,3.68c.26,0,.49,.07,.67,.2s.31,.32,.38,.56c0,0,.02,.1,.06,.34l-.05,.06h-2.08l-.06-.06,.08-.38c.16-.47,.49-.71,1-.71Zm2.8,1.09c-.1-.78-.4-1.4-.88-1.86-.48-.46-1.13-.7-1.93-.7-.63,0-1.18,.17-1.64,.5-.46,.34-.78,.79-.97,1.36-.12,.34-.18,.72-.18,1.16,0,.65,.08,1.17,.25,1.57,.21,.56,.55,1,1.03,1.31,.48,.31,1.06,.47,1.75,.47,.5,0,.95-.09,1.37-.27s.76-.43,1.02-.76l.05-.1-.06-.11-.86-.85-.08-.05-.11,.07c-.3,.41-.7,.62-1.21,.62-.64,0-1.06-.22-1.27-.67l-.13-.48,.05-.06h3.71l.16-.14c.02-.38,0-.72-.05-1.02Zm-9.19,3.82c.63,0,1.19-.15,1.67-.46,.48-.3,.81-.72,.98-1.26l.07-.36-.12-.13-1.38-.22-.17,.12v.04s-.02,.07-.02,.07c-.07,.23-.2,.41-.39,.55-.19,.13-.41,.2-.65,.2s-.47-.07-.65-.2c-.18-.14-.31-.32-.38-.56-.08-.24-.12-.57-.12-.98s.04-.74,.13-.98c.07-.22,.2-.4,.37-.53s.39-.19,.65-.19,.49,.07,.68,.2c.19,.14,.32,.31,.37,.52l.04,.19,.14,.12h.02l1.38-.2,.12-.13v-.02c0-.1-.03-.24-.1-.43-.16-.49-.48-.89-.97-1.21-.48-.32-1.05-.48-1.69-.48s-1.2,.16-1.67,.47c-.47,.31-.8,.74-1,1.28-.14,.39-.2,.86-.2,1.39s.07,1.02,.2,1.42c.2,.56,.53,1,1,1.32s1.02,.48,1.66,.48Zm-6.06-6.36c-.65,0-1.14,.23-1.46,.7h-.04s-.02-.04-.02-.04v-.42l-.04-.1-.1-.04h-1.4l-.1,.04-.04,.1v5.88l.04,.1,.1,.04h1.4l.1-.04,.04-.1v-3.59c0-.32,.09-.58,.27-.78s.42-.3,.71-.3,.53,.1,.71,.3c.18,.2,.27,.46,.27,.78v3.59l.04,.1,.1,.04h1.4l.1-.04,.04-.1v-3.94c0-.67-.2-1.2-.59-1.6-.39-.39-.91-.59-1.55-.59Zm-7.1,1.45c.26,0,.49,.07,.67,.2s.31,.32,.38,.56c0,0,.02,.1,.06,.34l-.05,.06h-2.08l-.06-.06,.08-.38c.16-.47,.49-.71,1-.71Zm2.8,1.09c-.1-.78-.4-1.4-.88-1.86-.48-.46-1.13-.7-1.93-.7-.63,0-1.18,.17-1.64,.5-.46,.34-.78,.79-.97,1.36-.12,.34-.18,.72-.18,1.16,0,.65,.08,1.17,.25,1.57,.21,.56,.55,1,1.03,1.31,.48,.31,1.06,.47,1.75,.47,.5,0,.95-.09,1.37-.27s.76-.43,1.02-.76l.05-.1-.06-.11-.86-.85-.08-.05-.11,.07c-.3,.41-.7,.62-1.21,.62-.64,0-1.06-.22-1.27-.67l-.13-.48,.05-.06h3.71l.16-.14c.02-.38,0-.72-.05-1.02Zm-6.98-2.53c-.55,0-.99,.24-1.32,.72h-.04s-.02-.04-.02-.04v-.46l-.04-.1-.1-.04h-1.4l-.1,.04-.04,.1v5.88l.04,.1,.1,.04h1.4l.1-.04,.04-.1v-3.28c0-.31,.1-.56,.3-.75,.2-.19,.44-.29,.73-.32l.26-.02,.42,.06,.17-.08,.25-1.37-.07-.18c-.17-.11-.4-.17-.68-.17Zm-6.96,1.44c.26,0,.49,.07,.67,.2s.31,.32,.38,.56c0,0,.02,.1,.06,.34l-.05,.06h-2.08l-.06-.06,.08-.38c.16-.47,.49-.71,1-.71Zm2.8,1.09c-.1-.78-.4-1.4-.88-1.86-.48-.46-1.13-.7-1.93-.7-.63,0-1.18,.17-1.64,.5-.46,.34-.78,.79-.97,1.36-.12,.34-.18,.72-.18,1.16,0,.65,.08,1.17,.25,1.57,.21,.56,.55,1,1.03,1.31,.48,.31,1.06,.47,1.75,.47,.5,0,.95-.09,1.37-.27s.76-.43,1.02-.76l.05-.1-.06-.11-.86-.85-.08-.05-.11,.07c-.3,.41-.7,.62-1.21,.62-.64,0-1.06-.22-1.27-.67l-.13-.48,.05-.06h3.71l.16-.14c.02-.38,0-.72-.05-1.02Zm-6.59-2.46h-1.16l-.06-.06v-.13c0-.29,.05-.49,.16-.59,.11-.11,.3-.17,.58-.17h.4l.1-.04,.04-.1V.24l-.04-.1-.1-.04h-.46c-.6-.02-1.07,.03-1.41,.15-.34,.12-.59,.31-.74,.59-.15,.28-.23,.66-.23,1.16v.26l-.06,.06h-.71l-.1,.04-.04,.1v1.14l.04,.1,.1,.04h.71l.06,.06v4.55l.04,.1,.1,.04h1.4l.1-.04,.04-.1V3.8l.06-.06h1.16l.1-.04,.04-.1v-1.14l-.04-.1-.1-.04Zm-7.4,1.37c.26,0,.49,.07,.67,.2s.31,.32,.38,.56c0,0,.02,.1,.06,.34l-.05,.06h-2.08l-.06-.06,.08-.38c.16-.47,.49-.71,1-.71Zm2.8,1.09c-.1-.78-.4-1.4-.88-1.86-.48-.46-1.13-.7-1.93-.7-.63,0-1.18,.17-1.64,.5-.46,.34-.78,.79-.97,1.36-.12,.34-.18,.72-.18,1.16,0,.65,.08,1.17,.25,1.57,.21,.56,.55,1,1.03,1.31,.48,.31,1.06,.47,1.75,.47,.5,0,.95-.09,1.37-.27s.76-.43,1.02-.76l.05-.1-.06-.11-.86-.85-.08-.05-.11,.07c-.3,.41-.7,.62-1.21,.62-.64,0-1.06-.22-1.27-.67l-.13-.48,.05-.06h3.71l.16-.14c.02-.38,0-.72-.05-1.02ZM2.26,1.55h1.57c.34,0,.61,.1,.82,.31,.21,.2,.32,.47,.32,.79s-.11,.58-.32,.78c-.21,.2-.49,.3-.82,.3h-1.57l-.06-.06V1.61l.06-.06Zm2.86,6.95h1.48l.13-.1-.02-.07-1.63-3.4,.04-.08c.49-.16,.87-.43,1.14-.82,.27-.39,.41-.85,.41-1.4,0-.5-.11-.95-.32-1.33s-.51-.68-.9-.89c-.39-.21-.84-.31-1.35-.31H.65l-.1,.04-.04,.1V8.35l.04,.1,.1,.04h1.4l.1-.04,.04-.1v-3.28l.06-.06h1.12l.07,.05,1.5,3.32,.17,.11Z" fill="#231f20"/><path d="M50.64,22.88h.08c.69,0,1.22-.07,1.6-.2,.38-.14,.67-.35,.88-.64s.41-.73,.61-1.31l2.08-6.24v-.13s-.11-.04-.11-.04h-1.46l-.17,.12-1.01,3.89-.04,.04-.04-.04-1.01-3.89-.17-.12h-1.5l-.13,.11v.06s1.98,5.98,1.98,5.98v.07c-.06,.26-.15,.46-.27,.6s-.27,.23-.47,.28c-.2,.05-.46,.08-.8,.08l-.1,.04-.04,.1v1.1l.02,.1,.06,.04Zm-3.7-2.29c.63,0,1.19-.15,1.67-.46,.48-.3,.81-.72,.98-1.26l.07-.36-.12-.13-1.38-.22-.17,.12v.04s-.02,.07-.02,.07c-.07,.23-.2,.41-.39,.55-.19,.13-.41,.2-.65,.2s-.47-.07-.65-.2c-.18-.14-.31-.32-.38-.56-.08-.24-.12-.57-.12-.98s.04-.74,.13-.98c.07-.22,.2-.4,.37-.53s.39-.19,.65-.19,.49,.07,.68,.2c.19,.14,.32,.31,.37,.52l.04,.19,.14,.12h.02l1.38-.2,.12-.13v-.02c0-.1-.03-.24-.1-.43-.16-.49-.48-.89-.97-1.21-.48-.32-1.05-.48-1.69-.48s-1.2,.16-1.67,.47c-.47,.31-.8,.74-1,1.28-.14,.39-.2,.86-.2,1.39s.07,1.02,.2,1.42c.2,.56,.53,1,1,1.32s1.02,.48,1.66,.48Zm-6.06-6.36c-.65,0-1.14,.23-1.46,.7h-.04s-.02-.04-.02-.04v-.42l-.04-.1-.1-.04h-1.4l-.1,.04-.04,.1v5.88l.04,.1,.1,.04h1.4l.1-.04,.04-.1v-3.59c0-.32,.09-.58,.27-.78s.42-.3,.71-.3,.53,.1,.71,.3c.18,.2,.27,.46,.27,.78v3.59l.04,.1,.1,.04h1.4l.1-.04,.04-.1v-3.94c0-.67-.2-1.2-.59-1.6-.39-.39-.91-.59-1.55-.59Zm-7.1,1.45c.26,0,.49,.07,.67,.2s.31,.32,.38,.56c0,0,.02,.1,.06,.34l-.05,.06h-2.08l-.06-.06,.08-.38c.16-.47,.49-.71,1-.71Zm2.8,1.09c-.1-.78-.4-1.4-.88-1.86-.48-.46-1.13-.7-1.93-.7-.63,0-1.18,.17-1.64,.5-.46,.34-.78,.79-.97,1.36-.12,.34-.18,.72-.18,1.16,0,.65,.08,1.17,.25,1.57,.21,.56,.55,1,1.03,1.31,.48,.31,1.06,.47,1.75,.47,.5,0,.95-.09,1.37-.27s.76-.43,1.02-.76l.05-.1-.06-.11-.86-.85-.08-.05-.11,.07c-.3,.41-.7,.62-1.21,.62-.64,0-1.06-.22-1.27-.67l-.13-.48,.05-.06h3.71l.16-.14c.02-.38,0-.72-.05-1.02Zm-8.4-2.3v3.78c-.04,.26-.15,.48-.32,.64-.18,.16-.4,.25-.67,.25-.3,0-.54-.1-.71-.3-.17-.2-.26-.46-.26-.78v-3.59l-.04-.1-.1-.04h-1.39l-.1,.04-.04,.1v4.01c0,.66,.2,1.18,.59,1.55,.39,.37,.89,.55,1.5,.55,.67,0,1.17-.22,1.49-.65l.05-.03,.02,.04v.41l.04,.1,.1,.04h1.4l.1-.04,.04-.1v-5.88l-.04-.1-.1-.04h-1.4l-.1,.04-.04,.1Zm-6.86,4.19c-.18,.32-.45,.48-.8,.48s-.65-.16-.85-.47c-.2-.31-.3-.74-.3-1.27,0-.48,.08-.88,.25-1.2,.2-.34,.5-.52,.89-.52,.36,0,.64,.17,.84,.52,.16,.3,.24,.7,.24,1.21s-.09,.95-.26,1.25Zm.28-4.19v.4l-.02,.04-.05-.02c-.34-.44-.8-.66-1.38-.66s-1.04,.15-1.45,.46c-.4,.31-.69,.74-.87,1.29-.14,.42-.2,.9-.2,1.44,0,.58,.07,1.08,.22,1.5,.18,.51,.47,.92,.87,1.22,.4,.3,.89,.45,1.47,.45s1.02-.2,1.34-.6l.05-.02,.02,.05v2.57l.04,.1,.1,.04h1.4l.1-.04,.04-.1V14.47l-.04-.1-.1-.04h-1.4l-.1,.04-.04,.1Zm-7.72,1.21c.26,0,.49,.07,.67,.2s.31,.32,.38,.56c0,0,.02,.1,.06,.34l-.05,.06h-2.08l-.06-.06,.08-.38c.16-.47,.49-.71,1-.71Zm2.8,1.09c-.1-.78-.4-1.4-.88-1.86-.48-.46-1.13-.7-1.93-.7-.63,0-1.18,.17-1.64,.5-.46,.34-.78,.79-.97,1.36-.12,.34-.18,.72-.18,1.16,0,.65,.08,1.17,.25,1.57,.21,.56,.55,1,1.03,1.31,.48,.31,1.06,.47,1.75,.47,.5,0,.95-.09,1.37-.27s.76-.43,1.02-.76l.05-.1-.06-.11-.86-.85-.08-.05-.11,.07c-.3,.41-.7,.62-1.21,.62-.64,0-1.06-.22-1.27-.67l-.13-.48,.05-.06h3.71l.16-.14c.02-.38,0-.72-.05-1.02Zm-6.98-2.53c-.55,0-.99,.24-1.32,.72h-.04s-.02-.04-.02-.04v-.46l-.04-.1-.1-.04h-1.4l-.1,.04-.04,.1v5.88l.04,.1,.1,.04h1.4l.1-.04,.04-.1v-3.28c0-.31,.1-.56,.3-.75,.2-.19,.44-.29,.73-.32l.26-.02,.42,.06,.17-.08,.25-1.37-.07-.18c-.17-.11-.4-.17-.68-.17Zm-3.86-.84v-1.16l-.04-.1-.1-.04H.14l-.1,.04-.04,.1v8.11l.04,.1,.1,.04H1.55l.1-.04,.04-.1v-3.31l.06-.06h2.58l.1-.04,.04-.1v-1.16l-.04-.1-.1-.04H1.75l-.06-.06v-1.86l.06-.06h3.92l.1-.04,.04-.1Z" fill="#231f20"/><path d="M42.18,25.4v-1.16l-.04-.1-.1-.04h-5.53l-.1,.04-.04,.1v8.11l.04,.1,.1,.04h1.4l.1-.04,.04-.1v-3.31l.06-.06h2.58l.1-.04,.04-.1v-1.16l-.04-.1-.1-.04h-2.58l-.06-.06v-1.86l.06-.06h3.92l.1-.04,.04-.1Zm-9.35,2.14v-1.07l-.04-.1-.1-.04h-1.15l-.06-.06v-1.43l-.04-.1-.1-.04h-1.34l-.1,.04-.04,.1v1.43l-.06,.06h-.68l-.1,.04-.04,.1v1.07l.04,.1,.1,.04h.68l.06,.06v3.22c0,.61,.18,1.02,.5,1.24s.82,.33,1.49,.33c.14,0,.38,0,.72-.02l.14-.16v-1.14l-.04-.1-.1-.04h-.4c-.24,0-.41-.06-.52-.19-.11-.13-.16-.32-.16-.59v-2.54l.06-.06h1.15l.1-.04,.04-.1Zm-6.48-1.07v3.78c-.04,.26-.15,.48-.32,.64-.18,.16-.4,.25-.67,.25-.3,0-.54-.1-.71-.3-.17-.2-.26-.46-.26-.78v-3.59l-.04-.1-.1-.04h-1.39l-.1,.04-.04,.1v4.01c0,.66,.2,1.18,.59,1.55,.39,.37,.89,.55,1.5,.55,.67,0,1.17-.22,1.49-.65l.05-.03,.02,.04v.41l.04,.1,.1,.04h1.4l.1-.04,.04-.1v-5.88l-.04-.1-.1-.04h-1.4l-.1,.04-.04,.1Zm-6.74,4.2c-.2,.31-.48,.47-.84,.47s-.63-.16-.82-.48c-.18-.3-.26-.71-.26-1.25s.08-.92,.25-1.21c.18-.34,.46-.52,.83-.52,.41,0,.7,.17,.89,.52,.17,.3,.25,.7,.25,1.2,0,.54-.1,.96-.3,1.27Zm1.84-2.69c-.18-.55-.47-.98-.87-1.29-.4-.31-.88-.46-1.43-.46-.59,0-1.06,.22-1.39,.66l-.05,.02-.02-.04v-.4l-.04-.1-.1-.04h-1.4l-.1,.04-.04,.1v8.11l.04,.1,.1,.04h1.4l.1-.04,.04-.1v-2.57l.02-.05,.05,.02c.32,.4,.77,.6,1.34,.6s1.07-.15,1.47-.45c.4-.3,.69-.71,.87-1.22,.15-.45,.23-.95,.23-1.5s-.07-1.03-.22-1.44Zm-8.86-1.75c-.65,0-1.14,.23-1.46,.7h-.04s-.02-.04-.02-.04v-.42l-.04-.1-.1-.04h-1.4l-.1,.04-.04,.1v5.88l.04,.1,.1,.04h1.4l.1-.04,.04-.1v-3.59c0-.32,.09-.58,.27-.78s.42-.3,.71-.3,.53,.1,.71,.3c.18,.2,.27,.46,.27,.78v3.59l.04,.1,.1,.04h1.4l.1-.04,.04-.1v-3.94c0-.67-.2-1.2-.59-1.6-.39-.39-.91-.59-1.55-.59Zm-6.12,6.26h1.4l.1-.04,.04-.1v-8.11l-.04-.1-.1-.04h-1.4l-.1,.04-.04,.1v8.11l.04,.1,.1,.04Z" fill="#231f20"/><path d="M48.16,29.99v3.36s0,.04,0,.04l-.03-.02-2.06-3.41-.11-.06h-.9l-.07,.03-.03,.07v5.41l.03,.07,.07,.03h.94l.07-.03,.03-.07-.02-3.38,.02-.04,.03,.02,2.07,3.42,.11,.06h.9l.07-.03,.03-.07v-5.41l-.03-.07-.07-.03h-.94l-.07,.03-.03,.07Zm-5.22,5.5h.94l.07-.03,.03-.07v-5.41l-.03-.07-.07-.03h-.94l-.07,.03-.03,.07v5.41l.03,.07,.07,.03Z" fill="#231f20"/><path d="M443.25,3.54v-1.07l-.04-.1-.1-.04h-1.15l-.06-.06V.84l-.04-.1-.1-.04h-1.34l-.1,.04-.04,.1v1.43l-.06,.06h-.68l-.1,.04-.04,.1v1.07l.04,.1,.1,.04h.68l.06,.06v3.22c0,.61,.18,1.02,.5,1.24s.82,.33,1.49,.33c.14,0,.38,0,.72-.02l.14-.16v-1.14l-.04-.1-.1-.04h-.4c-.24,0-.41-.06-.52-.19-.11-.13-.16-.32-.16-.59V3.74l.06-.06h1.15l.1-.04,.04-.1Zm-6.48-1.07v3.78c-.04,.26-.15,.48-.32,.64-.18,.16-.4,.25-.67,.25-.3,0-.54-.1-.71-.3-.17-.2-.26-.46-.26-.78V2.47l-.04-.1-.1-.04h-1.39l-.1,.04-.04,.1V6.48c0,.66,.2,1.18,.59,1.55,.39,.37,.89,.55,1.5,.55,.67,0,1.17-.22,1.49-.65l.05-.03,.02,.04v.41l.04,.1,.1,.04h1.4l.1-.04,.04-.1V2.47l-.04-.1-.1-.04h-1.4l-.1,.04-.04,.1Zm-6.74,4.2c-.2,.31-.48,.47-.84,.47s-.63-.16-.82-.48c-.18-.3-.26-.71-.26-1.25s.08-.92,.25-1.21c.18-.34,.46-.52,.83-.52,.41,0,.7,.17,.89,.52,.17,.3,.25,.7,.25,1.2,0,.54-.1,.96-.3,1.27Zm1.84-2.69c-.18-.55-.47-.98-.87-1.29-.4-.31-.88-.46-1.43-.46-.59,0-1.06,.22-1.39,.66l-.05,.02-.02-.04v-.4l-.04-.1-.1-.04h-1.4l-.1,.04-.04,.1V10.58l.04,.1,.1,.04h1.4l.1-.04,.04-.1v-2.57l.02-.05,.05,.02c.32,.4,.77,.6,1.34,.6s1.07-.15,1.47-.45c.4-.3,.69-.71,.87-1.22,.15-.45,.23-.95,.23-1.5s-.07-1.03-.22-1.44Zm-6.53-.44v-1.07l-.04-.1-.1-.04h-1.15l-.06-.06V.84l-.04-.1-.1-.04h-1.34l-.1,.04-.04,.1v1.43l-.06,.06h-.68l-.1,.04-.04,.1v1.07l.04,.1,.1,.04h.68l.06,.06v3.22c0,.61,.18,1.02,.5,1.24s.82,.33,1.49,.33c.14,0,.38,0,.72-.02l.14-.16v-1.14l-.04-.1-.1-.04h-.4c-.24,0-.41-.06-.52-.19-.11-.13-.16-.32-.16-.59V3.74l.06-.06h1.15l.1-.04,.04-.1Zm-6.48-1.07v3.78c-.04,.26-.15,.48-.32,.64-.18,.16-.4,.25-.67,.25-.3,0-.54-.1-.71-.3-.17-.2-.26-.46-.26-.78V2.47l-.04-.1-.1-.04h-1.39l-.1,.04-.04,.1V6.48c0,.66,.2,1.18,.59,1.55,.39,.37,.89,.55,1.5,.55,.67,0,1.17-.22,1.49-.65l.05-.03,.02,.04v.41l.04,.1,.1,.04h1.4l.1-.04,.04-.1V2.47l-.04-.1-.1-.04h-1.4l-.1,.04-.04,.1Zm-7.96,4.7c-.44,0-.79-.14-1.06-.42-.27-.28-.4-.65-.4-1.12V3c0-.46,.13-.84,.4-1.12,.27-.28,.62-.43,1.06-.43s.81,.14,1.07,.43c.27,.28,.4,.66,.4,1.12v2.64c0,.46-.14,.84-.41,1.12-.27,.28-.63,.42-1.07,.42Zm0,1.45c.63,0,1.19-.13,1.66-.38s.85-.61,1.11-1.07c.26-.46,.4-1,.4-1.6V3.01c0-.59-.13-1.12-.4-1.57-.26-.46-.63-.81-1.11-1.06s-1.03-.38-1.66-.38-1.17,.13-1.65,.38c-.48,.25-.85,.61-1.11,1.06s-.4,.98-.4,1.57v2.57c0,.6,.13,1.13,.4,1.59s.63,.82,1.11,1.07c.48,.26,1.03,.38,1.65,.38Z" fill="#231f20"/><path d="M448.37,22.88h.08c.69,0,1.22-.07,1.6-.2,.38-.14,.67-.35,.88-.64s.41-.73,.61-1.31l2.08-6.24v-.13s-.11-.04-.11-.04h-1.46l-.17,.12-1.01,3.89-.04,.04-.04-.04-1.01-3.89-.17-.12h-1.5l-.13,.11v.06s1.98,5.98,1.98,5.98v.07c-.06,.26-.15,.46-.27,.6s-.27,.23-.47,.28c-.2,.05-.46,.08-.8,.08l-.1,.04-.04,.1v1.1l.02,.1,.06,.04Zm-3.7-2.29c.63,0,1.19-.15,1.67-.46,.48-.3,.81-.72,.98-1.26l.07-.36-.12-.13-1.38-.22-.17,.12v.04s-.02,.07-.02,.07c-.07,.23-.2,.41-.39,.55-.19,.13-.41,.2-.65,.2s-.47-.07-.65-.2c-.18-.14-.31-.32-.38-.56-.08-.24-.12-.57-.12-.98s.04-.74,.13-.98c.07-.22,.2-.4,.37-.53s.39-.19,.65-.19,.49,.07,.68,.2c.19,.14,.32,.31,.37,.52l.04,.19,.14,.12h.02l1.38-.2,.12-.13v-.02c0-.1-.03-.24-.1-.43-.16-.49-.48-.89-.97-1.21-.48-.32-1.05-.48-1.69-.48s-1.2,.16-1.67,.47c-.47,.31-.8,.74-1,1.28-.14,.39-.2,.86-.2,1.39s.07,1.02,.2,1.42c.2,.56,.53,1,1,1.32s1.02,.48,1.66,.48Zm-6.06-6.36c-.65,0-1.14,.23-1.46,.7h-.04s-.02-.04-.02-.04v-.42l-.04-.1-.1-.04h-1.4l-.1,.04-.04,.1v5.88l.04,.1,.1,.04h1.4l.1-.04,.04-.1v-3.59c0-.32,.09-.58,.27-.78s.42-.3,.71-.3,.53,.1,.71,.3c.18,.2,.27,.46,.27,.78v3.59l.04,.1,.1,.04h1.4l.1-.04,.04-.1v-3.94c0-.67-.2-1.2-.59-1.6-.39-.39-.91-.59-1.55-.59Zm-7.1,1.45c.26,0,.49,.07,.67,.2s.31,.32,.38,.56c0,0,.02,.1,.06,.34l-.05,.06h-2.08l-.06-.06,.08-.38c.16-.47,.49-.71,1-.71Zm2.8,1.09c-.1-.78-.4-1.4-.88-1.86-.48-.46-1.13-.7-1.93-.7-.63,0-1.18,.17-1.64,.5-.46,.34-.78,.79-.97,1.36-.12,.34-.18,.72-.18,1.16,0,.65,.08,1.17,.25,1.57,.21,.56,.55,1,1.03,1.31,.48,.31,1.06,.47,1.75,.47,.5,0,.95-.09,1.37-.27s.76-.43,1.02-.76l.05-.1-.06-.11-.86-.85-.08-.05-.11,.07c-.3,.41-.7,.62-1.21,.62-.64,0-1.06-.22-1.27-.67l-.13-.48,.05-.06h3.71l.16-.14c.02-.38,0-.72-.05-1.02Zm-8.4-2.3v3.78c-.04,.26-.15,.48-.32,.64-.18,.16-.4,.25-.67,.25-.3,0-.54-.1-.71-.3-.17-.2-.26-.46-.26-.78v-3.59l-.04-.1-.1-.04h-1.39l-.1,.04-.04,.1v4.01c0,.66,.2,1.18,.59,1.55,.39,.37,.89,.55,1.5,.55,.67,0,1.17-.22,1.49-.65l.05-.03,.02,.04v.41l.04,.1,.1,.04h1.4l.1-.04,.04-.1v-5.88l-.04-.1-.1-.04h-1.4l-.1,.04-.04,.1Zm-6.86,4.19c-.18,.32-.45,.48-.8,.48s-.65-.16-.85-.47c-.2-.31-.3-.74-.3-1.27,0-.48,.08-.88,.25-1.2,.2-.34,.5-.52,.89-.52,.36,0,.64,.17,.84,.52,.16,.3,.24,.7,.24,1.21s-.09,.95-.26,1.25Zm.28-4.19v.4l-.02,.04-.05-.02c-.34-.44-.8-.66-1.38-.66s-1.04,.15-1.45,.46c-.4,.31-.69,.74-.87,1.29-.14,.42-.2,.9-.2,1.44,0,.58,.07,1.08,.22,1.5,.18,.51,.47,.92,.87,1.22,.4,.3,.89,.45,1.47,.45s1.02-.2,1.34-.6l.05-.02,.02,.05v2.57l.04,.1,.1,.04h1.4l.1-.04,.04-.1V14.47l-.04-.1-.1-.04h-1.4l-.1,.04-.04,.1Zm-7.72,1.21c.26,0,.49,.07,.67,.2s.31,.32,.38,.56c0,0,.02,.1,.06,.34l-.05,.06h-2.08l-.06-.06,.08-.38c.16-.47,.49-.71,1-.71Zm2.8,1.09c-.1-.78-.4-1.4-.88-1.86-.48-.46-1.13-.7-1.93-.7-.63,0-1.18,.17-1.64,.5-.46,.34-.78,.79-.97,1.36-.12,.34-.18,.72-.18,1.16,0,.65,.08,1.17,.25,1.57,.21,.56,.55,1,1.03,1.31,.48,.31,1.06,.47,1.75,.47,.5,0,.95-.09,1.37-.27s.76-.43,1.02-.76l.05-.1-.06-.11-.86-.85-.08-.05-.11,.07c-.3,.41-.7,.62-1.21,.62-.64,0-1.06-.22-1.27-.67l-.13-.48,.05-.06h3.71l.16-.14c.02-.38,0-.72-.05-1.02Zm-6.98-2.53c-.55,0-.99,.24-1.32,.72h-.04s-.02-.04-.02-.04v-.46l-.04-.1-.1-.04h-1.4l-.1,.04-.04,.1v5.88l.04,.1,.1,.04h1.4l.1-.04,.04-.1v-3.28c0-.31,.1-.56,.3-.75,.2-.19,.44-.29,.73-.32l.26-.02,.42,.06,.17-.08,.25-1.37-.07-.18c-.17-.11-.4-.17-.68-.17Zm-3.86-.84v-1.16l-.04-.1-.1-.04h-5.53l-.1,.04-.04,.1v8.11l.04,.1,.1,.04h1.4l.1-.04,.04-.1v-3.31l.06-.06h2.58l.1-.04,.04-.1v-1.16l-.04-.1-.1-.04h-2.58l-.06-.06v-1.86l.06-.06h3.92l.1-.04,.04-.1Z" fill="#231f20"/><path d="M436.23,25.4v-1.16l-.04-.1-.1-.04h-5.53l-.1,.04-.04,.1v8.11l.04,.1,.1,.04h1.4l.1-.04,.04-.1v-3.31l.06-.06h2.58l.1-.04,.04-.1v-1.16l-.04-.1-.1-.04h-2.58l-.06-.06v-1.86l.06-.06h3.92l.1-.04,.04-.1Zm-12.62,7.09h1.61l.17-.1,1.08-1.64h.07l1.08,1.64,.17,.1h1.51l.11-.1-.02-.08-1.92-2.87v-.07l1.92-2.87,.02-.13-.11-.05h-1.61l-.17,.1-1.08,1.64h-.08l-1.08-1.64-.17-.1h-1.5l-.12,.1,.02,.08,1.93,2.87v.07l-1.93,2.87-.02,.13,.11,.05Zm-2.81-8.26v5.04s-.01,.05-.01,.05l-.05-.03-3.1-5.11-.17-.1h-1.36l-.1,.04-.04,.1v8.11l.04,.1,.1,.04h1.4l.1-.04,.04-.1-.02-5.06,.02-.05,.05,.03,3.11,5.14,.17,.1h1.36l.1-.04,.04-.1v-8.11l-.04-.1-.1-.04h-1.4l-.1,.04-.04,.1Zm-13.3,6.56h4.85l.1-.04,.04-.1v-1.16l-.04-.1-.1-.04h-4.85l-.1,.04-.04,.1v1.16l.04,.1,.1,.04Zm0-2.3h4.85l.1-.04,.04-.1v-1.16l-.04-.1-.1-.04h-4.85l-.1,.04-.04,.1v1.16l.04,.1,.1,.04Z" fill="#231f20"/><path d="M442.21,29.99v3.36s0,.04,0,.04l-.03-.02-2.06-3.41-.11-.06h-.9l-.07,.03-.03,.07v5.41l.03,.07,.07,.03h.94l.07-.03,.03-.07-.02-3.38,.02-.04,.03,.02,2.07,3.42,.11,.06h.9l.07-.03,.03-.07v-5.41l-.03-.07-.07-.03h-.94l-.07,.03-.03,.07Zm-5.22,5.5h.94l.07-.03,.03-.07v-5.41l-.03-.07-.07-.03h-.94l-.07,.03-.03,.07v5.41l.03,.07,.07,.03Z" fill="#231f20"/><polyline points="25.08 50.7 65.3 50.7 65.3 49.2 25.08 49.2" fill="#231f20"/><polygon points="62.86 53.53 76.19 49.95 62.86 46.38 62.86 53.53" fill="#231f20"/><path d="M27.06,49.95h0c0,1.99-1.61,3.6-3.6,3.6s-3.6-1.61-3.6-3.6,1.61-3.6,3.6-3.6,3.6,1.61,3.6,3.6Z" fill="#fff"/><path d="M27.06,49.95h-.75c0,1.57-1.27,2.85-2.85,2.85-1.57,0-2.85-1.28-2.85-2.85,0-1.57,1.28-2.85,2.85-2.85,1.57,0,2.84,1.28,2.85,2.85h1.5c0-2.4-1.94-4.35-4.35-4.35-2.4,0-4.35,1.95-4.35,4.35,0,2.4,1.95,4.35,4.35,4.35,2.4,0,4.35-1.95,4.35-4.35h-.75Z" fill="#231f20"/><polyline points="425.24 57.39 385.03 57.39 385.03 58.89 425.24 58.89" fill="#231f20"/><path d="M423.26,58.14h0c0,1.99,1.61,3.6,3.6,3.6s3.6-1.61,3.6-3.6-1.61-3.6-3.6-3.6-3.6,1.61-3.6,3.6Z" fill="#fff"/><path d="M423.26,58.14h-.75c0,2.4,1.94,4.35,4.35,4.35,2.4,0,4.35-1.95,4.35-4.35,0-2.4-1.95-4.35-4.35-4.35-2.4,0-4.35,1.95-4.35,4.35h1.5c0-1.57,1.27-2.85,2.85-2.85,1.57,0,2.85,1.28,2.85,2.85,0,1.57-1.28,2.85-2.85,2.85-1.57,0-2.84-1.28-2.85-2.85h-.75Z" fill="#231f20"/><rect x="76.19" y="29.9" width="85.89" height="52.96" fill="#b4e0f8"/><polygon points="162.08 82.86 162.08 82.11 76.94 82.11 76.94 30.65 161.33 30.65 161.33 82.86 162.08 82.86 162.08 82.11 162.08 82.86 162.83 82.86 162.83 29.15 75.44 29.15 75.44 83.61 162.83 83.61 162.83 82.86 162.08 82.86" fill="#231f20"/><path d="M131.9,49.73c.26,0,.49,.07,.67,.2s.31,.32,.38,.56c0,0,.02,.1,.06,.34l-.05,.06h-2.08l-.06-.06,.08-.38c.16-.47,.49-.71,1-.71Zm2.8,1.09c-.1-.78-.4-1.4-.88-1.86-.48-.46-1.13-.7-1.93-.7-.63,0-1.18,.17-1.64,.5-.46,.34-.78,.79-.97,1.36-.12,.34-.18,.72-.18,1.16,0,.65,.08,1.17,.25,1.57,.21,.56,.55,1,1.03,1.31,.48,.31,1.06,.47,1.75,.47,.5,0,.95-.09,1.37-.27s.76-.43,1.02-.76l.05-.1-.06-.11-.86-.85-.08-.05-.11,.07c-.3,.41-.7,.62-1.21,.62-.64,0-1.06-.22-1.27-.67l-.13-.48,.05-.06h3.71l.16-.14c.02-.38,0-.72-.05-1.02Zm-9.02,3.8c.79,0,1.42-.17,1.89-.5,.47-.33,.7-.79,.7-1.39,0-.5-.16-.89-.49-1.15s-.78-.48-1.34-.65l-.36-.1-.3-.08c-.38-.09-.66-.17-.82-.25l-.25-.36,.25-.4c.17-.1,.38-.14,.65-.14,.3,0,.53,.06,.71,.18,.18,.12,.27,.27,.27,.44l.04,.1,.1,.04h1.28l.1-.04,.04-.1c0-.38-.11-.71-.32-1.01-.21-.3-.51-.53-.89-.69-.38-.16-.83-.25-1.34-.25-.76,0-1.37,.17-1.83,.52-.46,.35-.69,.82-.69,1.41,0,.48,.15,.85,.46,1.1,.3,.26,.71,.47,1.22,.65,.22,.09,.51,.18,.89,.28,.33,.08,.56,.16,.71,.23l.22,.32-.25,.4c-.17,.11-.39,.16-.66,.16-.3,0-.54-.06-.74-.19s-.29-.27-.29-.45h0s-.04-.11-.04-.11l-.1-.04h-1.33l-.1,.04-.04,.1v.12c0,.34,.11,.65,.33,.92,.22,.27,.53,.48,.93,.64,.4,.15,.87,.23,1.4,.23Zm-6.58-1.25c-.26,0-.46-.06-.61-.19-.15-.12-.23-.29-.23-.51,0-.25,.1-.44,.31-.58,.2-.14,.49-.2,.85-.2h.86l.06,.06v.43c0,.29-.12,.52-.36,.71-.24,.18-.53,.28-.88,.28Zm.24-5.1c-.48,0-.91,.08-1.3,.23-.39,.15-.7,.36-.94,.64-.24,.27-.37,.58-.4,.91l.13,.11,1.45,.19,.16-.12,.32-.37c.16-.09,.37-.13,.62-.13,.32,0,.56,.07,.72,.22s.24,.35,.24,.62v.26l-.06,.06h-1.22c-.8,0-1.42,.17-1.85,.51-.43,.34-.65,.82-.65,1.43s.19,1.04,.58,1.34c.38,.3,.89,.46,1.51,.46,.74,0,1.28-.22,1.62-.66l.05-.02,.02,.05v.4l.04,.1,.1,.04h1.4l.1-.04,.04-.1v-4.07c0-.38-.11-.73-.34-1.04-.23-.31-.55-.56-.95-.74-.41-.18-.87-.27-1.39-.27Zm-5.81,0c-.65,0-1.14,.23-1.46,.7h-.04s-.02-.04-.02-.04v-2.65l-.04-.1-.1-.04h-1.4l-.1,.04-.04,.1v8.11l.04,.1,.1,.04h1.4l.1-.04,.04-.1v-3.59c0-.32,.09-.58,.27-.78s.42-.3,.71-.3,.53,.1,.71,.3c.18,.2,.27,.46,.27,.78v3.59l.04,.1,.1,.04h1.4l.1-.04,.04-.1v-3.94c0-.67-.2-1.2-.59-1.6-.39-.39-.91-.59-1.55-.59Zm-7.06,1.64h-1.52l-.06-.06v-2.21l.06-.06h1.52c.37,0,.66,.11,.89,.32s.34,.5,.34,.85-.11,.62-.34,.83c-.22,.21-.52,.32-.89,.32Zm.25-3.79h-3.38l-.1,.04-.04,.1v8.12l.04,.1,.1,.04h1.4l.1-.04,.04-.1v-3.06l.06-.06h1.7c.54,0,1.01-.11,1.42-.32s.73-.51,.96-.89c.23-.38,.34-.83,.34-1.33s-.11-.97-.33-1.36c-.22-.4-.53-.7-.93-.92s-.86-.32-1.39-.32Z" fill="#020017"/><path d="M141.62,60.29c-.55,0-.99,.24-1.32,.72h-.04s-.02-.04-.02-.04v-.46l-.04-.1-.1-.04h-1.4l-.1,.04-.04,.1v5.88l.04,.1,.1,.04h1.4l.1-.04,.04-.1v-3.28c0-.31,.1-.56,.3-.75,.2-.19,.44-.29,.73-.32l.26-.02,.42,.06,.17-.08,.25-1.37-.07-.18c-.17-.11-.4-.17-.68-.17Zm-7.03,4.9c-.27,0-.5-.08-.69-.24-.19-.16-.32-.38-.4-.66-.06-.2-.08-.48-.08-.84s.03-.66,.1-.85c.08-.27,.21-.48,.39-.64,.18-.15,.41-.23,.68-.23s.49,.08,.67,.23c.18,.15,.32,.36,.41,.64,.06,.23,.1,.52,.1,.85,0,.3-.03,.58-.1,.84-.08,.28-.21,.5-.4,.66-.18,.16-.41,.24-.67,.24Zm0,1.45c.67,0,1.25-.18,1.72-.53,.48-.36,.8-.85,.98-1.47,.11-.38,.17-.78,.17-1.21s-.06-.86-.19-1.26c-.19-.59-.52-1.05-.98-1.39s-1.02-.5-1.68-.5-1.25,.17-1.73,.5c-.48,.34-.81,.8-1,1.39-.11,.38-.17,.8-.17,1.27,0,.44,.06,.85,.17,1.22,.18,.61,.5,1.09,.98,1.44,.48,.35,1.06,.53,1.73,.53Zm-3.74-5.05v-1.07l-.04-.1-.1-.04h-1.15l-.06-.06v-1.43l-.04-.1-.1-.04h-1.34l-.1,.04-.04,.1v1.43l-.06,.06h-.68l-.1,.04-.04,.1v1.07l.04,.1,.1,.04h.68l.06,.06v3.22c0,.61,.18,1.02,.5,1.24s.82,.33,1.49,.33c.14,0,.38,0,.72-.02l.14-.16v-1.14l-.04-.1-.1-.04h-.4c-.24,0-.41-.06-.52-.19-.11-.13-.16-.32-.16-.59v-2.54l.06-.06h1.15l.1-.04,.04-.1Zm-7.27,5.05c.63,0,1.19-.15,1.67-.46,.48-.3,.81-.72,.98-1.26l.07-.36-.12-.13-1.38-.22-.17,.12v.04s-.02,.07-.02,.07c-.07,.23-.2,.41-.39,.55-.19,.13-.41,.2-.65,.2s-.47-.07-.65-.2c-.18-.14-.31-.32-.38-.56-.08-.24-.12-.57-.12-.98s.04-.74,.13-.98c.07-.22,.2-.4,.37-.53s.39-.19,.65-.19,.49,.07,.68,.2c.19,.14,.32,.31,.37,.52l.04,.19,.14,.12h.02l1.38-.2,.12-.13v-.02c0-.1-.03-.24-.1-.43-.16-.49-.48-.89-.97-1.21-.48-.32-1.05-.48-1.69-.48s-1.2,.16-1.67,.47c-.47,.31-.8,.74-1,1.28-.14,.39-.2,.86-.2,1.39s.07,1.02,.2,1.42c.2,.56,.53,1,1,1.32s1.02,.48,1.66,.48Zm-6.6-4.91c.26,0,.49,.07,.67,.2s.31,.32,.38,.56c0,0,.02,.1,.06,.34l-.05,.06h-2.08l-.06-.06,.08-.38c.16-.47,.49-.71,1-.71Zm2.8,1.09c-.1-.78-.4-1.4-.88-1.86-.48-.46-1.13-.7-1.93-.7-.63,0-1.18,.17-1.64,.5-.46,.34-.78,.79-.97,1.36-.12,.34-.18,.72-.18,1.16,0,.65,.08,1.17,.25,1.57,.21,.56,.55,1,1.03,1.31,.48,.31,1.06,.47,1.75,.47,.5,0,.95-.09,1.37-.27s.76-.43,1.02-.76l.05-.1-.06-.11-.86-.85-.08-.05-.11,.07c-.3,.41-.7,.62-1.21,.62-.64,0-1.06-.22-1.27-.67l-.13-.48,.05-.06h3.71l.16-.14c.02-.38,0-.72-.05-1.02Zm-6.48-1.24v-1.07l-.04-.1-.1-.04h-1.15l-.06-.06v-1.43l-.04-.1-.1-.04h-1.34l-.1,.04-.04,.1v1.43l-.06,.06h-.68l-.1,.04-.04,.1v1.07l.04,.1,.1,.04h.68l.06,.06v3.22c0,.61,.18,1.02,.5,1.24s.82,.33,1.49,.33c.14,0,.38,0,.72-.02l.14-.16v-1.14l-.04-.1-.1-.04h-.4c-.24,0-.41-.06-.52-.19-.11-.13-.16-.32-.16-.59v-2.54l.06-.06h1.15l.1-.04,.04-.1Zm-7.43,.14c.26,0,.49,.07,.67,.2s.31,.32,.38,.56c0,0,.02,.1,.06,.34l-.05,.06h-2.08l-.06-.06,.08-.38c.16-.47,.49-.71,1-.71Zm2.8,1.09c-.1-.78-.4-1.4-.88-1.86-.48-.46-1.13-.7-1.93-.7-.63,0-1.18,.17-1.64,.5-.46,.34-.78,.79-.97,1.36-.12,.34-.18,.72-.18,1.16,0,.65,.08,1.17,.25,1.57,.21,.56,.55,1,1.03,1.31,.48,.31,1.06,.47,1.75,.47,.5,0,.95-.09,1.37-.27s.76-.43,1.02-.76l.05-.1-.06-.11-.86-.85-.08-.05-.11,.07c-.3,.41-.7,.62-1.21,.62-.64,0-1.06-.22-1.27-.67l-.13-.48,.05-.06h3.71l.16-.14c.02-.38,0-.72-.05-1.02Zm-11.08,2.21v-5.38l.06-.06h1.44c.38,0,.69,.12,.92,.37,.23,.25,.34,.58,.34,1v2.76c0,.42-.13,.75-.35,1-.23,.25-.53,.37-.89,.37h-1.45l-.06-.06Zm-1.55,1.51h3c.6,0,1.13-.11,1.58-.32,.45-.21,.8-.51,1.05-.89s.37-.83,.37-1.33v-3.31c0-.5-.12-.95-.37-1.33-.25-.38-.6-.68-1.05-.89s-.98-.32-1.58-.32h-3l-.1,.04-.04,.1v8.11l.04,.1,.1,.04Z" fill="#020017"/><rect x="188.36" y="29.9" width="85.89" height="52.96" fill="#b4e0f8"/><polygon points="274.25 82.86 274.25 82.11 189.11 82.11 189.11 30.65 273.5 30.65 273.5 82.86 274.25 82.86 274.25 82.11 274.25 82.86 275 82.86 275 29.15 187.61 29.15 187.61 83.61 275 83.61 275 82.86 274.25 82.86" fill="#231f20"/><path d="M254.77,54.62c.79,0,1.42-.17,1.89-.5,.47-.33,.7-.79,.7-1.39,0-.5-.16-.89-.49-1.15s-.78-.48-1.34-.65l-.36-.1-.3-.08c-.38-.09-.66-.17-.82-.25l-.25-.36,.25-.4c.17-.1,.38-.14,.65-.14,.3,0,.53,.06,.71,.18,.18,.12,.27,.27,.27,.44l.04,.1,.1,.04h1.28l.1-.04,.04-.1c0-.38-.11-.71-.32-1.01-.21-.3-.51-.53-.89-.69-.38-.16-.83-.25-1.34-.25-.76,0-1.37,.17-1.83,.52-.46,.35-.69,.82-.69,1.41,0,.48,.15,.85,.46,1.1,.3,.26,.71,.47,1.22,.65,.22,.09,.51,.18,.89,.28,.33,.08,.56,.16,.71,.23l.22,.32-.25,.4c-.17,.11-.39,.16-.66,.16-.3,0-.54-.06-.74-.19s-.29-.27-.29-.45h0s-.04-.11-.04-.11l-.1-.04h-1.33l-.1,.04-.04,.1v.12c0,.34,.11,.65,.33,.92,.22,.27,.53,.48,.93,.64,.4,.15,.87,.23,1.4,.23Zm-6.02,0c.79,0,1.42-.17,1.89-.5,.47-.33,.7-.79,.7-1.39,0-.5-.16-.89-.49-1.15s-.78-.48-1.34-.65l-.36-.1-.3-.08c-.38-.09-.66-.17-.82-.25l-.25-.36,.25-.4c.17-.1,.38-.14,.65-.14,.3,0,.53,.06,.71,.18,.18,.12,.27,.27,.27,.44l.04,.1,.1,.04h1.28l.1-.04,.04-.1c0-.38-.11-.71-.32-1.01-.21-.3-.51-.53-.89-.69-.38-.16-.83-.25-1.34-.25-.76,0-1.37,.17-1.83,.52-.46,.35-.69,.82-.69,1.41,0,.48,.15,.85,.46,1.1,.3,.26,.71,.47,1.22,.65,.22,.09,.51,.18,.89,.28,.33,.08,.56,.16,.71,.23l.22,.32-.25,.4c-.17,.11-.39,.16-.66,.16-.3,0-.54-.06-.74-.19s-.29-.27-.29-.45h0s-.04-.11-.04-.11l-.1-.04h-1.33l-.1,.04-.04,.1v.12c0,.34,.11,.65,.33,.92,.22,.27,.53,.48,.93,.64,.4,.15,.87,.23,1.4,.23Zm-6.58-1.25c-.26,0-.46-.06-.61-.19-.15-.12-.23-.29-.23-.51,0-.25,.1-.44,.31-.58,.2-.14,.49-.2,.85-.2h.86l.06,.06v.43c0,.29-.12,.52-.36,.71-.24,.18-.53,.28-.88,.28Zm.24-5.1c-.48,0-.91,.08-1.3,.23-.39,.15-.7,.36-.94,.64-.24,.27-.37,.58-.4,.91l.13,.11,1.45,.19,.16-.12,.32-.37c.16-.09,.37-.13,.62-.13,.32,0,.56,.07,.72,.22s.24,.35,.24,.62v.26l-.06,.06h-1.22c-.8,0-1.42,.17-1.85,.51-.43,.34-.65,.82-.65,1.43s.19,1.04,.58,1.34c.38,.3,.89,.46,1.51,.46,.74,0,1.28-.22,1.62-.66l.05-.02,.02,.05v.4l.04,.1,.1,.04h1.4l.1-.04,.04-.1v-4.07c0-.38-.11-.73-.34-1.04-.23-.31-.55-.56-.95-.74-.41-.18-.87-.27-1.39-.27Zm-6.3,1.64h-1.52l-.06-.06v-2.21l.06-.06h1.52c.37,0,.66,.11,.89,.32s.34,.5,.34,.85-.11,.62-.34,.83c-.22,.21-.52,.32-.89,.32Zm.25-3.79h-3.38l-.1,.04-.04,.1v8.12l.04,.1,.1,.04h1.4l.1-.04,.04-.1v-3.06l.06-.06h1.7c.54,0,1.01-.11,1.42-.32s.73-.51,.96-.89c.23-.38,.34-.83,.34-1.33s-.11-.97-.33-1.36c-.22-.4-.53-.7-.93-.92s-.86-.32-1.39-.32Zm-8.62,5.59h3.92l.1-.04,.04-.1v-1.16l-.04-.1-.1-.04h-3.92l-.1,.04-.04,.1v1.16l.04,.1,.1,.04Zm-7.73,2.82h1.45l.17-.12,.82-3.22,.04-.04,.04,.04,.92,3.22,.17,.12h1.45l.16-.12,1.75-5.88-.02-.11-.1-.04-1.44-.02-.17,.12-.94,3.64-.04,.04-.04-.04-.95-3.64-.17-.12h-1.26l-.17,.12-.9,3.62-.04,.04-.04-.04-.86-3.62-.17-.12h-1.45l-.13,.12v.05s1.74,5.89,1.74,5.89l.17,.12Zm-5.5-1.36c-.27,0-.5-.08-.69-.24-.19-.16-.32-.38-.4-.66-.06-.2-.08-.48-.08-.84s.03-.66,.1-.85c.08-.27,.21-.48,.39-.64,.18-.15,.41-.23,.68-.23s.49,.08,.67,.23c.18,.15,.32,.36,.41,.64,.06,.23,.1,.52,.1,.85,0,.3-.03,.58-.1,.84-.08,.28-.21,.5-.4,.66-.18,.16-.41,.24-.67,.24Zm0,1.45c.67,0,1.25-.18,1.72-.53,.48-.36,.8-.85,.98-1.47,.11-.38,.17-.78,.17-1.21s-.06-.86-.19-1.26c-.19-.59-.52-1.05-.98-1.39s-1.02-.5-1.68-.5-1.25,.17-1.73,.5c-.48,.34-.81,.8-1,1.39-.11,.38-.17,.8-.17,1.27,0,.44,.06,.85,.17,1.22,.18,.61,.5,1.09,.98,1.44,.48,.35,1.06,.53,1.73,.53Zm-9.34-.1h5.53l.1-.04,.04-.1v-1.16l-.04-.1-.1-.04h-3.92l-.06-.06v-6.74l-.04-.1-.1-.04h-1.4l-.1,.04-.04,.1v8.11l.04,.1,.1,.04Z" fill="#020017"/><path d="M244.31,60.29c-.55,0-.99,.24-1.32,.72h-.04s-.02-.04-.02-.04v-.46l-.04-.1-.1-.04h-1.4l-.1,.04-.04,.1v5.88l.04,.1,.1,.04h1.4l.1-.04,.04-.1v-3.28c0-.31,.1-.56,.3-.75,.2-.19,.44-.29,.73-.32l.26-.02,.42,.06,.17-.08,.25-1.37-.07-.18c-.17-.11-.4-.17-.68-.17Zm-6.96,1.44c.26,0,.49,.07,.67,.2s.31,.32,.38,.56c0,0,.02,.1,.06,.34l-.05,.06h-2.08l-.06-.06,.08-.38c.16-.47,.49-.71,1-.71Zm2.8,1.09c-.1-.78-.4-1.4-.88-1.86-.48-.46-1.13-.7-1.93-.7-.63,0-1.18,.17-1.64,.5-.46,.34-.78,.79-.97,1.36-.12,.34-.18,.72-.18,1.16,0,.65,.08,1.17,.25,1.57,.21,.56,.55,1,1.03,1.31,.48,.31,1.06,.47,1.75,.47,.5,0,.95-.09,1.37-.27s.76-.43,1.02-.76l.05-.1-.06-.11-.86-.85-.08-.05-.11,.07c-.3,.41-.7,.62-1.21,.62-.64,0-1.06-.22-1.27-.67l-.13-.48,.05-.06h3.71l.16-.14c.02-.38,0-.72-.05-1.02Zm-6.48-1.24v-1.07l-.04-.1-.1-.04h-1.15l-.06-.06v-1.43l-.04-.1-.1-.04h-1.34l-.1,.04-.04,.1v1.43l-.06,.06h-.68l-.1,.04-.04,.1v1.07l.04,.1,.1,.04h.68l.06,.06v3.22c0,.61,.18,1.02,.5,1.24s.82,.33,1.49,.33c.14,0,.38,0,.72-.02l.14-.16v-1.14l-.04-.1-.1-.04h-.4c-.24,0-.41-.06-.52-.19-.11-.13-.16-.32-.16-.59v-2.54l.06-.06h1.15l.1-.04,.04-.1Zm-6.32,4.96h1.4l.1-.04,.04-.1v-8.11l-.04-.1-.1-.04h-1.4l-.1,.04-.04,.1v8.11l.04,.1,.1,.04Zm-3.01,0h1.4l.1-.04,.04-.1v-5.89l-.04-.1-.1-.04h-1.4l-.1,.04-.04,.1v5.89l.04,.1,.1,.04Zm.72-6.86c.27,0,.5-.09,.68-.27,.18-.18,.27-.41,.27-.68s-.09-.51-.26-.68-.4-.26-.68-.26-.51,.09-.68,.26c-.18,.18-.26,.4-.26,.68s.09,.5,.27,.68,.41,.27,.68,.27Zm-1.7-.23v-1.16l-.04-.1-.1-.04h-5.53l-.1,.04-.04,.1v8.11l.04,.1,.1,.04h1.4l.1-.04,.04-.1v-3.31l.06-.06h2.58l.1-.04,.04-.1v-1.16l-.04-.1-.1-.04h-2.58l-.06-.06v-1.86l.06-.06h3.92l.1-.04,.04-.1Z" fill="#020017"/><rect x="188.36" y="137.56" width="85.89" height="52.96" fill="#b4e0f8"/><polygon points="274.25 190.51 274.25 189.76 189.11 189.76 189.11 138.31 273.5 138.31 273.5 190.51 274.25 190.51 274.25 189.76 274.25 190.51 275 190.51 275 136.81 187.61 136.81 187.61 191.26 275 191.26 275 190.51 274.25 190.51" fill="#231f20"/><path d="M249.73,164.58h.08c.69,0,1.22-.07,1.6-.2,.38-.14,.67-.35,.88-.64s.41-.73,.61-1.31l2.08-6.24v-.13s-.11-.04-.11-.04h-1.46l-.17,.12-1.01,3.89-.04,.04-.04-.04-1.01-3.89-.17-.12h-1.5l-.13,.11v.06s1.98,5.98,1.98,5.98v.07c-.06,.26-.15,.46-.27,.6s-.27,.23-.47,.28c-.2,.05-.46,.08-.8,.08l-.1,.04-.04,.1v1.1l.02,.1,.06,.04Zm-3.07-4.26c-.19,.34-.48,.52-.88,.52-.37,0-.65-.17-.84-.52-.16-.27-.24-.68-.24-1.21s.09-.96,.26-1.26c.18-.31,.45-.47,.8-.47,.38,0,.66,.16,.85,.47,.19,.3,.29,.72,.29,1.27,0,.5-.08,.9-.25,1.2Zm1.78-2.72c-.18-.51-.47-.92-.87-1.22-.4-.3-.89-.45-1.47-.45s-1.02,.2-1.33,.6l-.05,.02-.02-.05v-2.57l-.04-.1-.1-.04h-1.4l-.1,.04-.04,.1v8.11l.04,.1,.1,.04h1.4l.1-.04,.04-.1v-.4l.02-.04,.05,.02c.34,.44,.8,.66,1.38,.66,.55,0,1.03-.16,1.43-.47,.4-.31,.7-.74,.88-1.28,.14-.42,.2-.9,.2-1.45s-.08-1.07-.23-1.49Zm-11.75-.22c.26,0,.49,.07,.67,.2s.31,.32,.38,.56c0,0,.02,.1,.06,.34l-.05,.06h-2.08l-.06-.06,.08-.38c.16-.47,.49-.71,1-.71Zm2.8,1.09c-.1-.78-.4-1.4-.88-1.86-.48-.46-1.13-.7-1.93-.7-.63,0-1.18,.17-1.64,.5-.46,.34-.78,.79-.97,1.36-.12,.34-.18,.72-.18,1.16,0,.65,.08,1.17,.25,1.57,.21,.56,.55,1,1.03,1.31,.48,.31,1.06,.47,1.75,.47,.5,0,.95-.09,1.37-.27s.76-.43,1.02-.76l.05-.1-.06-.11-.86-.85-.08-.05-.11,.07c-.3,.41-.7,.62-1.21,.62-.64,0-1.06-.22-1.27-.67l-.13-.48,.05-.06h3.71l.16-.14c.02-.38,0-.72-.05-1.02Zm-8.68,1.85c-.2,.34-.48,.52-.84,.52-.39,0-.69-.17-.89-.52-.17-.32-.25-.72-.25-1.2,0-.54,.1-.96,.3-1.27,.19-.31,.48-.47,.85-.47,.35,0,.62,.16,.8,.47,.18,.3,.26,.72,.26,1.26s-.08,.92-.24,1.21Zm.25-6.38v2.57l-.02,.05-.05-.02c-.32-.4-.77-.6-1.34-.6s-1.07,.15-1.47,.45c-.4,.3-.69,.71-.87,1.22-.14,.42-.22,.92-.22,1.49s.07,1.04,.2,1.45c.18,.54,.47,.97,.87,1.28,.4,.31,.89,.47,1.45,.47s1.04-.22,1.38-.66l.05-.02,.02,.04v.4l.04,.1,.1,.04h1.4l.1-.04,.04-.1v-8.11l-.04-.1-.1-.04h-1.4l-.1,.04-.04,.1Zm-6.7,8.26h1.4l.1-.04,.04-.1v-5.89l-.04-.1-.1-.04h-1.4l-.1,.04-.04,.1v5.89l.04,.1,.1,.04Zm.72-6.86c.27,0,.5-.09,.68-.27,.18-.18,.27-.41,.27-.68s-.09-.51-.26-.68-.4-.26-.68-.26-.51,.09-.68,.26c-.18,.18-.26,.4-.26,.68s.09,.5,.27,.68,.41,.27,.68,.27Zm-5.44,6.86h1.57l.16-.12,1.91-5.87v-.13s-.12-.04-.12-.04l-1.55-.02-.17,.12-.98,3.64-.04,.04-.04-.04-.98-3.64-.17-.12h-1.55l-.13,.11v.06s1.93,5.89,1.93,5.89l.16,.12Zm-4.58,0h1.4l.1-.04,.04-.1v-5.89l-.04-.1-.1-.04h-1.4l-.1,.04-.04,.1v5.89l.04,.1,.1,.04Zm.72-6.86c.27,0,.5-.09,.68-.27,.18-.18,.27-.41,.27-.68s-.09-.51-.26-.68-.4-.26-.68-.26-.51,.09-.68,.26c-.18,.18-.26,.4-.26,.68s.09,.5,.27,.68,.41,.27,.68,.27Zm-6.53,5.35v-5.38l.06-.06h1.44c.38,0,.69,.12,.92,.37,.23,.25,.34,.58,.34,1v2.76c0,.42-.13,.75-.35,1-.23,.25-.53,.37-.89,.37h-1.45l-.06-.06Zm-1.55,1.51h3c.6,0,1.13-.11,1.58-.32,.45-.21,.8-.51,1.05-.89s.37-.83,.37-1.33v-3.31c0-.5-.12-.95-.37-1.33-.25-.38-.6-.68-1.05-.89s-.98-.32-1.58-.32h-3l-.1,.04-.04,.1v8.11l.04,.1,.1,.04Z" fill="#020017"/><path d="M256.69,167.94c-.55,0-.99,.24-1.32,.72h-.04s-.02-.04-.02-.04v-.46l-.04-.1-.1-.04h-1.4l-.1,.04-.04,.1v5.88l.04,.1,.1,.04h1.4l.1-.04,.04-.1v-3.28c0-.31,.1-.56,.3-.75,.2-.19,.44-.29,.73-.32l.26-.02,.42,.06,.17-.08,.25-1.37-.07-.18c-.17-.11-.4-.17-.68-.17Zm-6.96,1.44c.26,0,.49,.07,.67,.2s.31,.32,.38,.56c0,0,.02,.1,.06,.34l-.05,.06h-2.08l-.06-.06,.08-.38c.16-.47,.49-.71,1-.71Zm2.8,1.09c-.1-.78-.4-1.4-.88-1.86-.48-.46-1.13-.7-1.93-.7-.63,0-1.18,.17-1.64,.5-.46,.34-.78,.79-.97,1.36-.12,.34-.18,.72-.18,1.16,0,.65,.08,1.17,.25,1.57,.21,.56,.55,1,1.03,1.31,.48,.31,1.06,.47,1.75,.47,.5,0,.95-.09,1.37-.27s.76-.43,1.02-.76l.05-.1-.06-.11-.86-.85-.08-.05-.11,.07c-.3,.41-.7,.62-1.21,.62-.64,0-1.06-.22-1.27-.67l-.13-.48,.05-.06h3.71l.16-.14c.02-.38,0-.72-.05-1.02Zm-6.48-1.24v-1.07l-.04-.1-.1-.04h-1.15l-.06-.06v-1.43l-.04-.1-.1-.04h-1.34l-.1,.04-.04,.1v1.43l-.06,.06h-.68l-.1,.04-.04,.1v1.07l.04,.1,.1,.04h.68l.06,.06v3.22c0,.61,.18,1.02,.5,1.24s.82,.33,1.49,.33c.14,0,.38,0,.72-.02l.14-.16v-1.14l-.04-.1-.1-.04h-.4c-.24,0-.41-.06-.52-.19-.11-.13-.16-.32-.16-.59v-2.54l.06-.06h1.15l.1-.04,.04-.1Zm-6.89-1.31c-.65,0-1.14,.23-1.46,.7h-.04s-.02-.04-.02-.04v-.42l-.04-.1-.1-.04h-1.4l-.1,.04-.04,.1v5.88l.04,.1,.1,.04h1.4l.1-.04,.04-.1v-3.59c0-.32,.09-.58,.27-.78s.42-.3,.71-.3,.53,.1,.71,.3c.18,.2,.27,.46,.27,.78v3.59l.04,.1,.1,.04h1.4l.1-.04,.04-.1v-3.94c0-.67-.2-1.2-.59-1.6-.39-.39-.91-.59-1.55-.59Zm-6.16,.24v3.78c-.04,.26-.15,.48-.32,.64-.18,.16-.4,.25-.67,.25-.3,0-.54-.1-.71-.3-.17-.2-.26-.46-.26-.78v-3.59l-.04-.1-.1-.04h-1.39l-.1,.04-.04,.1v4.01c0,.66,.2,1.18,.59,1.55,.39,.37,.89,.55,1.5,.55,.67,0,1.17-.22,1.49-.65l.05-.03,.02,.04v.41l.04,.1,.1,.04h1.4l.1-.04,.04-.1v-5.88l-.04-.1-.1-.04h-1.4l-.1,.04-.04,.1Zm-7.56,4.67c-.27,0-.5-.08-.69-.24-.19-.16-.32-.38-.4-.66-.06-.2-.08-.48-.08-.84s.03-.66,.1-.85c.08-.27,.21-.48,.39-.64,.18-.15,.41-.23,.68-.23s.49,.08,.67,.23c.18,.15,.32,.36,.41,.64,.06,.23,.1,.52,.1,.85,0,.3-.03,.58-.1,.84-.08,.28-.21,.5-.4,.66-.18,.16-.41,.24-.67,.24Zm0,1.45c.67,0,1.25-.18,1.72-.53,.48-.36,.8-.85,.98-1.47,.11-.38,.17-.78,.17-1.21s-.06-.86-.19-1.26c-.19-.59-.52-1.05-.98-1.39s-1.02-.5-1.68-.5-1.25,.17-1.73,.5c-.48,.34-.81,.8-1,1.39-.11,.38-.17,.8-.17,1.27,0,.44,.06,.85,.17,1.22,.18,.61,.5,1.09,.98,1.44,.48,.35,1.06,.53,1.73,.53Zm-6.96,0c.62,0,1.16-.12,1.63-.35,.47-.23,.83-.56,1.09-.98,.26-.42,.39-.91,.39-1.46l-.04-.08-.1-.04-1.4-.06-.14,.13c0,.42-.13,.75-.39,1.01-.26,.26-.6,.38-1.03,.38s-.78-.13-1.04-.38c-.26-.26-.39-.59-.39-1.01v-2.89c0-.42,.13-.76,.39-1.02,.26-.26,.61-.38,1.04-.38s.77,.13,1.03,.38,.39,.6,.39,1.02l.12,.13h.02l1.4-.08,.14-.13c0-.55-.13-1.04-.39-1.46-.26-.42-.62-.74-1.09-.97-.47-.23-1.01-.34-1.63-.34s-1.17,.12-1.64,.36c-.47,.24-.84,.58-1.09,1.02-.26,.44-.38,.95-.38,1.52v2.77c0,.58,.13,1.08,.38,1.52,.26,.44,.62,.78,1.09,1.03s1.02,.37,1.64,.37Zm-8.51-8.35v5.04s-.01,.05-.01,.05l-.05-.03-3.1-5.11-.17-.1h-1.36l-.1,.04-.04,.1v8.11l.04,.1,.1,.04h1.4l.1-.04,.04-.1-.02-5.06,.02-.05,.05,.03,3.11,5.14,.17,.1h1.36l.1-.04,.04-.1v-8.11l-.04-.1-.1-.04h-1.4l-.1,.04-.04,.1Z" fill="#020017"/><rect x="300.13" y="29.9" width="85.89" height="52.96" fill="#b4e0f8"/><polygon points="386.01 82.86 386.01 82.11 300.88 82.11 300.88 30.65 385.26 30.65 385.26 82.86 386.01 82.86 386.01 82.11 386.01 82.86 386.76 82.86 386.76 29.15 299.38 29.15 299.38 83.61 386.76 83.61 386.76 82.86 386.01 82.86" fill="#231f20"/><path d="M360.45,43.71c.26,0,.49,.07,.67,.2s.31,.32,.38,.56c0,0,.02,.1,.06,.34l-.05,.06h-2.08l-.06-.06,.08-.38c.16-.47,.49-.71,1-.71Zm2.8,1.09c-.1-.78-.4-1.4-.88-1.86-.48-.46-1.13-.7-1.93-.7-.63,0-1.18,.17-1.64,.5-.46,.34-.78,.79-.97,1.36-.12,.34-.18,.72-.18,1.16,0,.65,.08,1.17,.25,1.57,.21,.56,.55,1,1.03,1.31,.48,.31,1.06,.47,1.75,.47,.5,0,.95-.09,1.37-.27s.76-.43,1.02-.76l.05-.1-.06-.11-.86-.85-.08-.05-.11,.07c-.3,.41-.7,.62-1.21,.62-.64,0-1.06-.22-1.27-.67l-.13-.48,.05-.06h3.71l.16-.14c.02-.38,0-.72-.05-1.02Zm-8.46,1.57c-.06,.21-.18,.38-.35,.51s-.38,.2-.64,.2-.46-.07-.64-.2-.31-.31-.38-.52c-.1-.19-.14-.51-.14-.96,0-.41,.06-.73,.17-.97,.08-.22,.2-.39,.37-.52,.17-.13,.37-.2,.61-.2s.46,.07,.62,.2,.29,.31,.36,.52l.08,.38c.02,.14,.02,.33,.02,.58,0,.42-.03,.74-.1,.98Zm.1-3.88v.29l-.02,.04-.05-.02c-.33-.37-.8-.55-1.42-.55-.53,0-.99,.15-1.39,.44-.4,.3-.68,.69-.85,1.18-.14,.39-.22,.9-.22,1.52,0,.58,.06,1.06,.18,1.43,.18,.56,.49,.97,.93,1.22,.44,.25,.91,.38,1.43,.38,.58,0,1.03-.16,1.33-.49l.05-.02,.02,.04c0,.5-.14,.86-.41,1.08-.28,.22-.67,.34-1.18,.34-.24,0-.5-.02-.79-.07l-.17,.13-.05,1.24,.12,.16c.34,.04,.66,.06,.94,.06,.95,0,1.73-.22,2.33-.67,.6-.45,.91-1.2,.91-2.24v-5.47l-.04-.1-.1-.04h-1.4l-.1,.04-.04,.1Zm-7.88,4.86c-.26,0-.46-.06-.61-.19-.15-.12-.23-.29-.23-.51,0-.25,.1-.44,.31-.58,.2-.14,.49-.2,.85-.2h.86l.06,.06v.43c0,.29-.12,.52-.36,.71-.24,.18-.53,.28-.88,.28Zm.24-5.1c-.48,0-.91,.08-1.3,.23-.39,.15-.7,.36-.94,.64-.24,.27-.37,.58-.4,.91l.13,.11,1.45,.19,.16-.12,.32-.37c.16-.09,.37-.13,.62-.13,.32,0,.56,.07,.72,.22s.24,.35,.24,.62v.26l-.06,.06h-1.22c-.8,0-1.42,.17-1.85,.51-.43,.34-.65,.82-.65,1.43s.19,1.04,.58,1.34c.38,.3,.89,.46,1.51,.46,.74,0,1.28-.22,1.62-.66l.05-.02,.02,.05v.4l.04,.1,.1,.04h1.4l.1-.04,.04-.1v-4.07c0-.38-.11-.73-.34-1.04-.23-.31-.55-.56-.95-.74-.41-.18-.87-.27-1.39-.27Zm-3.48,1.31v-1.07l-.04-.1-.1-.04h-1.15l-.06-.06v-1.43l-.04-.1-.1-.04h-1.34l-.1,.04-.04,.1v1.43l-.06,.06h-.68l-.1,.04-.04,.1v1.07l.04,.1,.1,.04h.68l.06,.06v3.22c0,.61,.18,1.02,.5,1.24s.82,.33,1.49,.33c.14,0,.38,0,.72-.02l.14-.16v-1.14l-.04-.1-.1-.04h-.4c-.24,0-.41-.06-.52-.19-.11-.13-.16-.32-.16-.59v-2.54l.06-.06h1.15l.1-.04,.04-.1Zm-6.32,4.96h1.4l.1-.04,.04-.1v-8.11l-.04-.1-.1-.04h-1.4l-.1,.04-.04,.1v8.11l.04,.1,.1,.04Zm-4.1-1.36c-.27,0-.5-.08-.69-.24-.19-.16-.32-.38-.4-.66-.06-.2-.08-.48-.08-.84s.03-.66,.1-.85c.08-.27,.21-.48,.39-.64,.18-.15,.41-.23,.68-.23s.49,.08,.67,.23c.18,.15,.32,.36,.41,.64,.06,.23,.1,.52,.1,.85,0,.3-.03,.58-.1,.84-.08,.28-.21,.5-.4,.66-.18,.16-.41,.24-.67,.24Zm0,1.45c.67,0,1.25-.18,1.72-.53,.48-.36,.8-.85,.98-1.47,.11-.38,.17-.78,.17-1.21s-.06-.86-.19-1.26c-.19-.59-.52-1.05-.98-1.39s-1.02-.5-1.68-.5-1.25,.17-1.73,.5c-.48,.34-.81,.8-1,1.39-.11,.38-.17,.8-.17,1.27,0,.44,.06,.85,.17,1.22,.18,.61,.5,1.09,.98,1.44,.48,.35,1.06,.53,1.73,.53Zm-7.85-.1h1.51l.16-.12,2.51-8.11v-.12s-.12-.05-.12-.05h-1.48l-.17,.12-1.57,5.86-.04,.04-.04-.04-1.6-5.86-.17-.12h-1.51l-.13,.12v.05s2.48,8.11,2.48,8.11l.16,.12Z" fill="#020017"/><path d="M368.31,58.64c-.2,.34-.48,.52-.84,.52-.39,0-.69-.17-.89-.52-.17-.32-.25-.72-.25-1.2,0-.54,.1-.96,.3-1.27,.19-.31,.48-.47,.85-.47,.35,0,.62,.16,.8,.47,.18,.3,.26,.72,.26,1.26s-.08,.92-.24,1.21Zm.25-6.38v2.57l-.02,.05-.05-.02c-.32-.4-.77-.6-1.34-.6s-1.07,.15-1.47,.45c-.4,.3-.69,.71-.87,1.22-.14,.42-.22,.92-.22,1.49s.07,1.04,.2,1.45c.18,.54,.47,.97,.87,1.28,.4,.31,.89,.47,1.45,.47s1.04-.22,1.38-.66l.05-.02,.02,.04v.4l.04,.1,.1,.04h1.4l.1-.04,.04-.1v-8.11l-.04-.1-.1-.04h-1.4l-.1,.04-.04,.1Zm-7.72,3.44c.26,0,.49,.07,.67,.2s.31,.32,.38,.56c0,0,.02,.1,.06,.34l-.05,.06h-2.08l-.06-.06,.08-.38c.16-.47,.49-.71,1-.71Zm2.8,1.09c-.1-.78-.4-1.4-.88-1.86-.48-.46-1.13-.7-1.93-.7-.63,0-1.18,.17-1.64,.5-.46,.34-.78,.79-.97,1.36-.12,.34-.18,.72-.18,1.16,0,.65,.08,1.17,.25,1.57,.21,.56,.55,1,1.03,1.31,.48,.31,1.06,.47,1.75,.47,.5,0,.95-.09,1.37-.27s.76-.43,1.02-.76l.05-.1-.06-.11-.86-.85-.08-.05-.11,.07c-.3,.41-.7,.62-1.21,.62-.64,0-1.06-.22-1.27-.67l-.13-.48,.05-.06h3.71l.16-.14c.02-.38,0-.72-.05-1.02Zm-8.24,3.72h1.4l.1-.04,.04-.1v-8.11l-.04-.1-.1-.04h-1.4l-.1,.04-.04,.1v8.11l.04,.1,.1,.04Zm-2.93,0h1.4l.1-.04,.04-.1v-8.11l-.04-.1-.1-.04h-1.4l-.1,.04-.04,.1v8.11l.04,.1,.1,.04Zm-4.1-1.36c-.27,0-.5-.08-.69-.24-.19-.16-.32-.38-.4-.66-.06-.2-.08-.48-.08-.84s.03-.66,.1-.85c.08-.27,.21-.48,.39-.64,.18-.15,.41-.23,.68-.23s.49,.08,.67,.23c.18,.15,.32,.36,.41,.64,.06,.23,.1,.52,.1,.85,0,.3-.03,.58-.1,.84-.08,.28-.21,.5-.4,.66-.18,.16-.41,.24-.67,.24Zm0,1.45c.67,0,1.25-.18,1.72-.53,.48-.36,.8-.85,.98-1.47,.11-.38,.17-.78,.17-1.21s-.06-.86-.19-1.26c-.19-.59-.52-1.05-.98-1.39s-1.02-.5-1.68-.5-1.25,.17-1.73,.5c-.48,.34-.81,.8-1,1.39-.11,.38-.17,.8-.17,1.27,0,.44,.06,.85,.17,1.22,.18,.61,.5,1.09,.98,1.44,.48,.35,1.06,.53,1.73,.53Zm-4.25-6.35c-.55,0-.99,.24-1.32,.72h-.04s-.02-.04-.02-.04v-.46l-.04-.1-.1-.04h-1.4l-.1,.04-.04,.1v5.88l.04,.1,.1,.04h1.4l.1-.04,.04-.1v-3.28c0-.31,.1-.56,.3-.75,.2-.19,.44-.29,.73-.32l.26-.02,.42,.06,.17-.08,.25-1.37-.07-.18c-.17-.11-.4-.17-.68-.17Zm-4.09,1.3v-1.07l-.04-.1-.1-.04h-1.15l-.06-.06v-1.43l-.04-.1-.1-.04h-1.34l-.1,.04-.04,.1v1.43l-.06,.06h-.68l-.1,.04-.04,.1v1.07l.04,.1,.1,.04h.68l.06,.06v3.22c0,.61,.18,1.02,.5,1.24s.82,.33,1.49,.33c.14,0,.38,0,.72-.02l.14-.16v-1.14l-.04-.1-.1-.04h-.4c-.24,0-.41-.06-.52-.19-.11-.13-.16-.32-.16-.59v-2.54l.06-.06h1.15l.1-.04,.04-.1Zm-6.89-1.31c-.65,0-1.14,.23-1.46,.7h-.04s-.02-.04-.02-.04v-.42l-.04-.1-.1-.04h-1.4l-.1,.04-.04,.1v5.88l.04,.1,.1,.04h1.4l.1-.04,.04-.1v-3.59c0-.32,.09-.58,.27-.78s.42-.3,.71-.3,.53,.1,.71,.3c.18,.2,.27,.46,.27,.78v3.59l.04,.1,.1,.04h1.4l.1-.04,.04-.1v-3.94c0-.67-.2-1.2-.59-1.6-.39-.39-.91-.59-1.55-.59Zm-7.18,4.91c-.27,0-.5-.08-.69-.24-.19-.16-.32-.38-.4-.66-.06-.2-.08-.48-.08-.84s.03-.66,.1-.85c.08-.27,.21-.48,.39-.64,.18-.15,.41-.23,.68-.23s.49,.08,.67,.23c.18,.15,.32,.36,.41,.64,.06,.23,.1,.52,.1,.85,0,.3-.03,.58-.1,.84-.08,.28-.21,.5-.4,.66-.18,.16-.41,.24-.67,.24Zm0,1.45c.67,0,1.25-.18,1.72-.53,.48-.36,.8-.85,.98-1.47,.11-.38,.17-.78,.17-1.21s-.06-.86-.19-1.26c-.19-.59-.52-1.05-.98-1.39s-1.02-.5-1.68-.5-1.25,.17-1.73,.5c-.48,.34-.81,.8-1,1.39-.11,.38-.17,.8-.17,1.27,0,.44,.06,.85,.17,1.22,.18,.61,.5,1.09,.98,1.44,.48,.35,1.06,.53,1.73,.53Zm-6.96,0c.62,0,1.16-.12,1.63-.35,.47-.23,.83-.56,1.09-.98,.26-.42,.39-.91,.39-1.46l-.04-.08-.1-.04-1.4-.06-.14,.13c0,.42-.13,.75-.39,1.01-.26,.26-.6,.38-1.03,.38s-.78-.13-1.04-.38c-.26-.26-.39-.59-.39-1.01v-2.89c0-.42,.13-.76,.39-1.02,.26-.26,.61-.38,1.04-.38s.77,.13,1.03,.38,.39,.6,.39,1.02l.12,.13h.02l1.4-.08,.14-.13c0-.55-.13-1.04-.39-1.46-.26-.42-.62-.74-1.09-.97-.47-.23-1.01-.34-1.63-.34s-1.17,.12-1.64,.36c-.47,.24-.84,.58-1.09,1.02-.26,.44-.38,.95-.38,1.52v2.77c0,.58,.13,1.08,.38,1.52,.26,.44,.62,.78,1.09,1.03s1.02,.37,1.64,.37Z" fill="#020017"/><path d="M367.72,66.26c-.55,0-.99,.24-1.32,.72h-.04s-.02-.04-.02-.04v-.46l-.04-.1-.1-.04h-1.4l-.1,.04-.04,.1v5.88l.04,.1,.1,.04h1.4l.1-.04,.04-.1v-3.28c0-.31,.1-.56,.3-.75,.2-.19,.44-.29,.73-.32l.26-.02,.42,.06,.17-.08,.25-1.37-.07-.18c-.17-.11-.4-.17-.68-.17Zm-7.03,4.9c-.27,0-.5-.08-.69-.24-.19-.16-.32-.38-.4-.66-.06-.2-.08-.48-.08-.84s.03-.66,.1-.85c.08-.27,.21-.48,.39-.64,.18-.15,.41-.23,.68-.23s.49,.08,.67,.23c.18,.15,.32,.36,.41,.64,.06,.23,.1,.52,.1,.85,0,.3-.03,.58-.1,.84-.08,.28-.21,.5-.4,.66-.18,.16-.41,.24-.67,.24Zm0,1.45c.67,0,1.25-.18,1.72-.53,.48-.36,.8-.85,.98-1.47,.11-.38,.17-.78,.17-1.21s-.06-.86-.19-1.26c-.19-.59-.52-1.05-.98-1.39s-1.02-.5-1.68-.5-1.25,.17-1.73,.5c-.48,.34-.81,.8-1,1.39-.11,.38-.17,.8-.17,1.27,0,.44,.06,.85,.17,1.22,.18,.61,.5,1.09,.98,1.44,.48,.35,1.06,.53,1.73,.53Zm-3.74-5.05v-1.07l-.04-.1-.1-.04h-1.15l-.06-.06v-1.43l-.04-.1-.1-.04h-1.34l-.1,.04-.04,.1v1.43l-.06,.06h-.68l-.1,.04-.04,.1v1.07l.04,.1,.1,.04h.68l.06,.06v3.22c0,.61,.18,1.02,.5,1.24s.82,.33,1.49,.33c.14,0,.38,0,.72-.02l.14-.16v-1.14l-.04-.1-.1-.04h-.4c-.24,0-.41-.06-.52-.19-.11-.13-.16-.32-.16-.59v-2.54l.06-.06h1.15l.1-.04,.04-.1Zm-7.66,3.79c-.26,0-.46-.06-.61-.19-.15-.12-.23-.29-.23-.51,0-.25,.1-.44,.31-.58,.2-.14,.49-.2,.85-.2h.86l.06,.06v.43c0,.29-.12,.52-.36,.71-.24,.18-.53,.28-.88,.28Zm.24-5.1c-.48,0-.91,.08-1.3,.23-.39,.15-.7,.36-.94,.64-.24,.27-.37,.58-.4,.91l.13,.11,1.45,.19,.16-.12,.32-.37c.16-.09,.37-.13,.62-.13,.32,0,.56,.07,.72,.22s.24,.35,.24,.62v.26l-.06,.06h-1.22c-.8,0-1.42,.17-1.85,.51-.43,.34-.65,.82-.65,1.43s.19,1.04,.58,1.34c.38,.3,.89,.46,1.51,.46,.74,0,1.28-.22,1.62-.66l.05-.02,.02,.05v.4l.04,.1,.1,.04h1.4l.1-.04,.04-.1v-4.07c0-.38-.11-.73-.34-1.04-.23-.31-.55-.56-.95-.74-.41-.18-.87-.27-1.39-.27Zm-5.24,6.26h1.4l.1-.04,.04-.1v-8.11l-.04-.1-.1-.04h-1.4l-.1,.04-.04,.1v8.11l.04,.1,.1,.04Zm-2.93,0h1.4l.1-.04,.04-.1v-8.11l-.04-.1-.1-.04h-1.4l-.1,.04-.04,.1v8.11l.04,.1,.1,.04Zm-3.01,0h1.4l.1-.04,.04-.1v-5.89l-.04-.1-.1-.04h-1.4l-.1,.04-.04,.1v5.89l.04,.1,.1,.04Zm.72-6.86c.27,0,.5-.09,.68-.27,.18-.18,.27-.41,.27-.68s-.09-.51-.26-.68-.4-.26-.68-.26-.51,.09-.68,.26c-.18,.18-.26,.4-.26,.68s.09,.5,.27,.68,.41,.27,.68,.27Zm-4.64,6.96c.63,0,1.19-.15,1.67-.46,.48-.3,.81-.72,.98-1.26l.07-.36-.12-.13-1.38-.22-.17,.12v.04s-.02,.07-.02,.07c-.07,.23-.2,.41-.39,.55-.19,.13-.41,.2-.65,.2s-.47-.07-.65-.2c-.18-.14-.31-.32-.38-.56-.08-.24-.12-.57-.12-.98s.04-.74,.13-.98c.07-.22,.2-.4,.37-.53s.39-.19,.65-.19,.49,.07,.68,.2c.19,.14,.32,.31,.37,.52l.04,.19,.14,.12h.02l1.38-.2,.12-.13v-.02c0-.1-.03-.24-.1-.43-.16-.49-.48-.89-.97-1.21-.48-.32-1.05-.48-1.69-.48s-1.2,.16-1.67,.47c-.47,.31-.8,.74-1,1.28-.14,.39-.2,.86-.2,1.39s.07,1.02,.2,1.42c.2,.56,.53,1,1,1.32s1.02,.48,1.66,.48Zm-6.28-.01c.79,0,1.42-.17,1.89-.5,.47-.33,.7-.79,.7-1.39,0-.5-.16-.89-.49-1.15s-.78-.48-1.34-.65l-.36-.1-.3-.08c-.38-.09-.66-.17-.82-.25l-.25-.36,.25-.4c.17-.1,.38-.14,.65-.14,.3,0,.53,.06,.71,.18,.18,.12,.27,.27,.27,.44l.04,.1,.1,.04h1.28l.1-.04,.04-.1c0-.38-.11-.71-.32-1.01-.21-.3-.51-.53-.89-.69-.38-.16-.83-.25-1.34-.25-.76,0-1.37,.17-1.83,.52-.46,.35-.69,.82-.69,1.41,0,.48,.15,.85,.46,1.1,.3,.26,.71,.47,1.22,.65,.22,.09,.51,.18,.89,.28,.33,.08,.56,.16,.71,.23l.22,.32-.25,.4c-.17,.11-.39,.16-.66,.16-.3,0-.54-.06-.74-.19s-.29-.27-.29-.45h0s-.04-.11-.04-.11l-.1-.04h-1.33l-.1,.04-.04,.1v.12c0,.34,.11,.65,.33,.92,.22,.27,.53,.48,.93,.64,.4,.15,.87,.23,1.4,.23Zm-6.82-1.4c-.44,0-.79-.14-1.06-.42-.27-.28-.4-.65-.4-1.12v-2.64c0-.46,.13-.84,.4-1.12,.27-.28,.62-.43,1.06-.43s.81,.14,1.07,.43c.27,.28,.4,.66,.4,1.12v2.64c0,.46-.14,.84-.41,1.12-.27,.28-.63,.42-1.07,.42Zm0,1.45c.63,0,1.19-.13,1.66-.38s.85-.61,1.11-1.07c.26-.46,.4-1,.4-1.6v-2.57c0-.59-.13-1.12-.4-1.57-.26-.46-.63-.81-1.11-1.06s-1.03-.38-1.66-.38-1.17,.13-1.65,.38c-.48,.25-.85,.61-1.11,1.06s-.4,.98-.4,1.57v2.57c0,.6,.13,1.13,.4,1.59s.63,.82,1.11,1.07c.48,.26,1.03,.38,1.65,.38Z" fill="#020017"/><polygon points="404.38 58.14 404.38 164.95 285.15 164.95 285.15 166.45 405.88 166.45 405.88 58.14 404.38 58.14 404.38 58.14" fill="#231f20"/><polygon points="287.58 162.12 274.25 165.7 287.58 169.27 287.58 162.12" fill="#231f20"/><polyline points="162.08 58.89 177.46 58.89 177.46 57.39 162.08 57.39" fill="#231f20"/><polygon points="175.02 61.71 188.36 58.14 175.02 54.57 175.02 61.71" fill="#231f20"/><polyline points="274.44 58.89 289.82 58.89 289.82 57.39 274.44 57.39" fill="#231f20"/><polygon points="287.39 61.71 300.72 58.14 287.39 54.57 287.39 61.71" fill="#231f20"/><polygon points="188.36 164.95 45.94 164.95 45.94 66.04 65.3 66.04 65.3 64.54 44.44 64.54 44.44 166.45 188.36 166.45 188.36 164.95 188.36 164.95" fill="#231f20"/><polygon points="62.86 68.86 76.19 65.29 62.86 61.71 62.86 68.86" fill="#231f20"/><path d="M408.01,58.14h0c0-1.55-1.28-2.81-2.88-2.81s-2.88,1.26-2.88,2.81,1.29,2.81,2.88,2.81,2.88-1.26,2.88-2.81Z" fill="#231f20"/><path d="M408.01,58.14h.5c0-1.84-1.51-3.31-3.37-3.31-1.85,0-3.37,1.47-3.38,3.31,0,1.84,1.52,3.31,3.38,3.31,1.86,0,3.37-1.48,3.37-3.31h-1c0,1.27-1.05,2.31-2.38,2.31-1.32,0-2.37-1.05-2.38-2.31,0-1.27,1.06-2.31,2.38-2.31,1.33,0,2.37,1.04,2.38,2.31h.5Z" fill="#231f20"/></g></g></svg>